# xmcd CD database file
#
# Track frame offsets:
#	150
#	24913
#	45543
#	64657
#	92242
#	119440
#	137134
#	173810
#	196160
#	220681
#	246650
#	273822
#	296093
#
# Disc length: 4411 seconds
#
# Revision: 0
# Processed by: cddbd v1.5.1PL0 Copyright (c) Steve Scherf et al.
# Submitted via: CDex 1.51
#
DISCID=bf11390d
DTITLE=Various Artist - Enchanted Moments
DYEAR=1900
DGENRE=New Age
TTITLE0=Childlike - Palash
TTITLE1=Something's Out There - Soul Touch
TTITLE2=The Birds in the Oak - L.Trier and C.Sievert
TTITLE3=Two Little Sisters - Eventyr
TTITLE4=Night Time Caravan - Lars Alsing
TTITLE5=Manamalei - Pushkar
TTITLE6=Golden Sunrise - Frantz Amathy
TTITLE7=Birte's Tune - Carsten Rosenlund
TTITLE8=Simplicaty - Kenneth Plon
TTITLE9=The Way - Sambodhi Prem
TTITLE10=Resam Piriri - Christian Alvad
TTITLE11=New Spring - Lars Alsing
TTITLE12=Eastern Wind - Bindu
EXTD=
EXTT0=
EXTT1=
EXTT2=
EXTT3=
EXTT4=
EXTT5=
EXTT6=
EXTT7=
EXTT8=
EXTT9=
EXTT10=
EXTT11=
EXTT12=
PLAYORDER=
